<svg viewBox="234 60.9551 380 240.0897" width="5000" height="3159.075" xmlns="http://www.w3.org/2000/svg" xmlns:xlink="http://www.w3.org/1999/xlink" preserveAspectRatio="none"><defs></defs><style>.aD6z1nYkhcolor {fill:#FFFFFF;fill-opacity:1;}.aD6z1nYkhstrokeColor-str {stroke:#D9D9D9;stroke-opacity:1;}</style><g opacity="0.2" transform="rotate(0 361.4757 60.9551)">
<svg width="125.0485" height="128.6224" x="361.4757" y="60.9551" version="1.1" preserveAspectRatio="none" viewBox="32.11442565917969 30.224994659423828 136.0855712890625 139.9750213623047">
  <g transform="matrix(1 0 0 1 0 0)" ><g><path d="M164.4 100l3.5-14.9c0-.1 0-.4-.1-.6l-9.7-12.1-3.6-15.9c0-.1-.1-.4-.4-.4l-14.4-6.9-9.1-11.4c-.1-.1-.3-.3-.6-.3h-14.7l-15-7.2c-.1-.1-.4-.1-.6 0l-14.9 7.2H70.1c-.3 0-.4.1-.6.3l-9.2 11.6-13.4 6.4-1.4.7c-.3.1-.6.4-.6.7l-.3 2-3 13.4-7.9 10.1-1.4 1.7c-.1.3-.3.6-.1.9l.7 2.3 2.9 12.3-3.5 15.3c0 .1 0 .4.1.6l9.5 12 3.6 15.8c0 .1.1.4.4.4l14.7 7.1 9.2 11.6c.1.1.3.3.6.3H85l14.9 7.2h.6l15-7.2h14.7c.3 0 .4-.1.6-.3l9.1-11.4 12.4-5.9 2.2-1c.1-.1.3-.3.3-.4l.7-3.2 2.9-12.9 9.7-12.1c.1-.1.1-.4.1-.6l-3.8-15.2zM99.1 31.8v5.3H88l11.1-5.3zm-14 6.8h14.2v14.2L78.2 41.9l6.9-3.3zm-3.3 0l-5.3 2.6-5.1-2.6h10.4zm-11 1.3l4 2-4.9 2.5.9-4.5zm5.6 2.8l22.8 11.6.1 43.8-35-27.8L69.4 46l7-3.3zM51 139.3l1.9 2.3H48l3-2.3zm-2.7.3l.7-2.9 1.2 1.4-1.9 1.5zm1.3-4.7l5.9-23.7c0-.3 0-.4-.1-.6L39 90.9l2-8.8 22.7-10.4 35 27.7-47.4 37.9-1.7-2.4zm19.6-94.8l-1 5.1-4.8 2.3 5.8-7.4zM61.3 50l6.5-3.2-4.6 22.5L52.6 61l8.7-11zm-9.8 10.1l-4-3.3 11-5.3-7 8.6zm-5-2l4 3.3-6.8 8.5 2.8-11.8zm-3.4 14.7L51.7 62l10.7 8.7-20.9 9.5 1.6-7.4zm-2 2.7L39.8 81l-4.9 2.3 6.2-7.8zm-1.6 7.3l-1.6 6.6-3.5-4.3 5.1-2.3zM34.1 87l3.5 4.2-1.3 5.5-2.2-9.7zm-.6 28l2.6-11.9 4.8 21.1-7.4-9.2zm3.5-15l1.7-7.4L54 111.2l-5.6 22.4-5.3-6.6-6.1-27zm9.4 41.3l-2.5-11 4 5.1-1.5 5.9zm1.3 1.9l6.5-.1 4.2 5.2-10.7-5.1zm22.8 18.2l-7.1-9 18.3 9H70.5zm-9.2-11.6L56 143l23.4-.3 14 18.6H85l-23.7-11.5zm26.7 13h6.5l3.8 4.9-10.3-4.9zm11.6 4.5l-3.3-4.5h3.3v4.5zm-4.2-5.9l-15-19.8c-.1-.1-.3-.3-.6-.3l-24.8.3-2.6-3.2 47.2-37.6.3 60.6h-4.5zm68.3-64.8l-1.3-5.6 3.6-4.5-2.3 10.1zm2.2-12.1l-3.9 4.8-3.2-13.6 7.1 8.8zm-15.4 50.2l-1.9 2.6-47.5-37.7 32.6-26 26.9 16.6.1.6-16 19.5c-.1.1-.1.4-.1.6l5.9 23.8zm.6 1.8l.9 3.2-2.2-1.6 1.3-1.6zm9.1-48.4l-25.4-15.6L148.1 62l8.7 11 3.4 15.1zM156 69.8l-6.8-8.7 4-3.3 2.8 12zm-3.6-13l-4 3.3-6.6-8.4 10.6 5.1zm-5.3 4.2L134 71.4l-2.2-24.6 6.8 3.3 8.5 10.9zm-10.6-13.6l-4.9-2.3-.4-4.3 5.3 6.6zm-6.3-3.1l-4.9-2.3 4.5-2.3.4 4.6zm-1.5-5.6l-5.2 2.6-5.3-2.6h10.5zm-6.6 3.5l-21.4 10.7V38.7H115l7.1 3.5zm-21.5-10.4l11.3 5.5-11.3-.1v-5.4zM123.7 43l6.6 3 2.3 26.4-31.8 25.4-.1-43.4 23-11.4zm24.1 95.4l-2.7 3.5-24-.7c-.3 0-.4.1-.6.3l-15.3 19.8h-4l-.3-60.1 46.9 37.2zM101 162.8h3l-3 3.8v-3.8zm1.3 4.5l3.6-4.6h5.9l-9.5 4.6zm27.3-6.1h-11.4l18.3-8.8-6.9 8.8zm9.1-11.2l-23.8 11.4H107l14.4-18.6 22.5.6-5.2 6.6zm2.9-1.6l4-5.1 6.2.1-10.2 5zm5.2-6.5l2-2.6 3.5 2.7-5.5-.1zm6.8-1l-1.4-5.8 3.9-4.9-2.5 10.7zm3.2-13.9l-5.1 6.4-5.6-22.4 15.2-18.5 1.7 7.5-6.2 27zm2.1-2.6l4.9-21.1 2.6 11.7-7.5 9.4z" data-color="1" style="fill:#FFFFFF;fill-opacity:1;"></path></g></g>
</svg>
</g><g opacity="1" transform="rotate(0 234 198.5811)">
<svg width="380" height="102.4637" x="234" y="198.5811" version="1.1" preserveAspectRatio="none" viewBox="-1.6 -28.96 287.20000000000005 77.44">
  <g transform="matrix(1 0 0 1 0 0)" class="aD6z1nYkhcolor"><path id="id-D6z1nYkh15" d="M30.08-0.40L30.08-0.40L30.40-0.40L30.40 0L15.24 0L15.24-0.40L15.60-0.40Q16.48-0.40 16.92-0.94Q17.36-1.48 17.36-1.94Q17.36-2.40 17.16-2.92L17.16-2.92L15.60-6.64L7.04-6.64L5.44-2.92Q5.24-2.40 5.24-2.08Q5.24-1.76 5.38-1.38Q5.52-1 5.98-0.70Q6.44-0.40 6.96-0.40L6.96-0.40L7.32-0.40L7.32 0L-1.60 0L-1.60-0.40L-1.24-0.40Q-0.32-0.40 0.58-0.94Q1.48-1.48 2.08-2.56L2.08-2.56L11.40-23Q13.52-27.48 13.68-28.96L13.68-28.96L14.04-28.96L26.72-2.60Q28-0.40 30.08-0.40ZM11.40-16.64L7.92-8.64L14.76-8.64L11.40-16.64Z M63.60-24L63.60-23.60L62.92-23.60Q62-23.60 61.36-23.04Q60.72-22.48 60.72-21.64L60.72-21.64L60.72-3.88Q60.72-1.28 61.08 0.04L61.08 0.04L61.20 0.48L60.84 0.48L44.04-13.64L44.04-2.40Q44.08-1.56 44.70-0.98Q45.32-0.40 46.24-0.40L46.24-0.40L46.88-0.40L46.88 0L33.36 0L33.36-0.40L34-0.40Q34.92-0.40 35.56-0.98Q36.20-1.56 36.20-2.40L36.20-2.40L36.20-20.28Q36.20-22.68 35.84-24.08L35.84-24.08L35.72-24.52L36.08-24.52L52.84-10.36L52.84-21.60Q52.84-22.44 52.22-23.02Q51.60-23.60 50.68-23.60L50.68-23.60L50-23.60L50-24L63.60-24Z M93.04-20.84Q96.80-17.68 96.80-11.98Q96.80-6.28 93.04-3.14Q89.28 0 82.48 0L82.48 0L68.88 0L68.88-0.40L69.36-0.40Q70.28-0.40 70.94-1.04Q71.60-1.68 71.60-2.56L71.60-2.56L71.60-21.56Q71.52-22.44 70.88-23.02Q70.24-23.60 69.32-23.60L69.32-23.60L68.84-23.60L68.84-24L82.48-24Q89.28-24 93.04-20.84ZM81.72-22.20L79.44-22.20L79.44-1.84L81.72-1.84Q84.92-1.84 86.76-4.52Q88.60-7.20 88.60-12L88.60-12Q88.60-18.48 85.40-21L85.40-21Q83.84-22.20 81.72-22.20L81.72-22.20Z M122.76 0L102.28 0L102.28-0.40L102.72-0.40Q103.56-0.40 104-0.84L104-0.84Q104.80-1.60 104.80-2.48L104.80-2.48L104.80-21.48Q104.80-22.40 104.18-23Q103.56-23.60 102.72-23.60L102.72-23.60L102.28-23.60L102.28-24L117.88-24Q118.88-24 120.12-24.20Q121.36-24.40 121.84-24.60L121.84-24.60L121.84-17.04L121.44-17.04L121.44-17.24Q121.44-19.56 120.22-20.84Q119-22.12 116.76-22.16L116.76-22.16L112.64-22.16L112.64-12.76L115.72-12.76Q117.48-12.80 118.58-13.94Q119.68-15.08 119.68-16.88L119.68-16.88L119.68-16.96L120.08-16.96L120.08-6.64L119.68-6.64L119.68-6.80Q119.68-8.56 118.58-9.72Q117.48-10.88 115.72-10.88L115.72-10.88L112.64-10.88L112.64-1.84L116.48-1.84Q118.88-1.84 120.84-3.60Q122.80-5.36 123.52-8.40L123.52-8.40L123.88-8.40L122.76 0Z M152.68-17.40L152.68-17.40Q152.68-15.32 151.68-13.56L151.68-13.56Q150.52-11.52 147.56-11L147.56-11Q148.96-10.64 150.14-9.58Q151.32-8.52 151.70-7.84Q152.08-7.16 152.48-6.32L152.48-6.32Q154.84-1.72 156.20-0.84L156.20-0.84Q156.92-0.40 158-0.40L158-0.40L158 0L153.28 0Q149.32 0 148.12-0.52L148.12-0.52Q146.48-1.24 145.74-2.14Q145-3.04 144.32-4.24L144.32-4.24Q143.24-6.08 142.56-9.48L142.56-9.48Q142.16-11.28 141.24-11.76L141.24-11.76L141.24-12.08L141.44-12.08Q142.56-12.08 143.40-13.10Q144.24-14.12 144.48-16.44L144.48-16.44Q144.48-16.48 144.48-16.68L144.48-16.68Q144.68-18.48 144.16-19.66Q143.64-20.84 143.24-21.24Q142.84-21.64 142.20-21.84L142.20-21.84Q141.52-22.08 140.96-22.08L140.96-22.08L140.16-22.08L140.16-2.48Q140.16-1.48 140.82-0.94Q141.48-0.40 142.28-0.40L142.28-0.40L142.64-0.40L142.64 0L129.80 0L129.80-0.40L130.24-0.40Q131.08-0.40 131.68-1Q132.28-1.60 132.28-2.48L132.28-2.48L132.28-21.52Q132.28-22.40 131.70-23Q131.12-23.60 130.28-23.60L130.28-23.60L129.80-23.60L129.80-24L143.56-24Q152.68-24 152.68-17.40Z M182.20-8.40L181.04 0L160.56 0L160.56-0.40L161.00-0.40Q161.84-0.40 162.46-1Q163.08-1.60 163.08-2.48L163.08-2.48L163.08-21.52Q163.08-22.40 162.46-23Q161.84-23.60 161.00-23.60L161.00-23.60L160.56-23.60L160.56-24L173.48-24L173.48-23.60L173.04-23.60Q171.64-23.60 171.12-22.36L171.12-22.36Q170.92-21.96 170.92-21.52L170.92-21.52L170.92-1.84L174.76-1.84Q177.16-1.84 179.10-3.60Q181.04-5.36 181.80-8.40L181.80-8.40L182.20-8.40Z M214.00-0.40L214.00-0.40L214.32-0.40L214.32 0L200.24 0L200.24-0.40L200.56-0.40Q201.36-0.40 201.74-0.82Q202.12-1.24 202.12-1.62Q202.12-2 201.92-2.44L201.92-2.44L200.76-5.08L193.36-5.08L192.16-2.32Q192.00-1.96 192.00-1.60Q192.00-1.24 192.38-0.82Q192.76-0.40 193.56-0.40L193.56-0.40L193.84-0.40L193.84 0L185.60 0L185.60-0.40L185.92-0.40Q186.76-0.40 187.62-0.88Q188.48-1.36 188.96-2.36L188.96-2.36L197.20-20.12Q199.16-24.40 199.28-25.44L199.28-25.44L199.60-25.44L210.88-2.44Q211.92-0.40 214.00-0.40ZM197.04-13.60L194.12-6.88L199.96-6.88L197.04-13.60Z M247.36-24L247.36-23.60L246.68-23.60Q245.76-23.60 245.12-23.04Q244.48-22.48 244.48-21.64L244.48-21.64L244.48-3.88Q244.48-1.28 244.84 0.04L244.84 0.04L244.96 0.48L244.60 0.48L227.80-13.64L227.80-2.40Q227.84-1.56 228.46-0.98Q229.08-0.40 230.00-0.40L230.00-0.40L230.64-0.40L230.64 0L217.12 0L217.12-0.40L217.76-0.40Q218.68-0.40 219.32-0.98Q219.96-1.56 219.96-2.40L219.96-2.40L219.96-20.28Q219.96-22.68 219.60-24.08L219.60-24.08L219.48-24.52L219.84-24.52L236.60-10.36L236.60-21.60Q236.60-22.44 235.98-23.02Q235.36-23.60 234.44-23.60L234.44-23.60L233.76-23.60L233.76-24L247.36-24Z M276.80-20.84Q280.56-17.68 280.56-11.98Q280.56-6.28 276.80-3.14Q273.04 0 266.24 0L266.24 0L252.64 0L252.64-0.40L253.12-0.40Q254.04-0.40 254.70-1.04Q255.36-1.68 255.36-2.56L255.36-2.56L255.36-21.56Q255.28-22.44 254.64-23.02Q254.00-23.60 253.08-23.60L253.08-23.60L252.60-23.60L252.60-24L266.24-24Q273.04-24 276.80-20.84ZM265.48-22.20L263.20-22.20L263.20-1.84L265.48-1.84Q268.68-1.84 270.52-4.52Q272.36-7.20 272.36-12L272.36-12Q272.36-18.48 269.16-21L269.16-21Q267.60-22.20 265.48-22.20L265.48-22.20Z M78.24 48L78.24 48L63.68 48L63.68 47.60L64.20 47.60Q65.64 47.60 66.40 46.36L66.40 46.36Q66.72 45.80 66.76 45.12L66.76 45.12L66.76 22.88Q66.72 21.44 65.48 20.72L65.48 20.72Q64.88 20.40 64.20 20.40L64.20 20.40L63.68 20.40L63.68 20L77.60 20Q88.72 20 88.72 26.96L88.72 26.96Q88.72 31 85.44 32.36L85.44 32.36Q84.52 32.72 83.48 32.76L83.48 32.76Q86.56 32.92 88.66 34.86Q90.76 36.80 90.76 40L90.76 40Q90.76 44 87.36 46Q83.96 48 78.24 48ZM75.52 45.92L75.52 45.92Q78.12 45.92 79.74 44.36Q81.36 42.80 81.36 39.62Q81.36 36.44 80.08 34.82Q78.80 33.20 76.32 33.20L76.32 33.20L76.32 32.84Q80.12 32.84 80.12 27.42Q80.12 22 75.48 22L75.48 22Q75.48 22 75.48 22L75.48 22L74.96 22L74.96 45.92L75.48 45.92Q75.52 45.92 75.52 45.92Z M97.60 36Q97.60 30.08 101.46 26.80Q105.32 23.52 112.18 23.52Q119.04 23.52 122.90 26.80Q126.76 30.08 126.76 36Q126.76 41.92 122.90 45.20Q119.04 48.48 112.18 48.48Q105.32 48.48 101.46 45.20Q97.60 41.92 97.60 36ZM105.76 36Q105.76 41.12 107.40 43.90Q109.04 46.68 112.16 46.68Q115.28 46.68 116.92 43.90Q118.56 41.12 118.56 36.04L118.56 36.04Q118.56 29.12 115.68 26.60L115.68 26.60Q114.24 25.32 112.16 25.32L112.16 25.32Q109.04 25.32 107.40 28.10Q105.76 30.88 105.76 36Z M133.64 36Q133.64 30.08 137.50 26.80Q141.36 23.52 148.22 23.52Q155.08 23.52 158.94 26.80Q162.80 30.08 162.80 36Q162.80 41.92 158.94 45.20Q155.08 48.48 148.22 48.48Q141.36 48.48 137.50 45.20Q133.64 41.92 133.64 36ZM141.80 36Q141.80 41.12 143.44 43.90Q145.08 46.68 148.20 46.68Q151.32 46.68 152.96 43.90Q154.60 41.12 154.60 36.04L154.60 36.04Q154.60 29.12 151.72 26.60L151.72 26.60Q150.28 25.32 148.20 25.32L148.20 25.32Q145.08 25.32 143.44 28.10Q141.80 30.88 141.80 36Z M180.88 47.60L180.88 47.60L181.28 47.60L181.28 48L168.40 48L168.40 47.60L168.80 47.60Q169.68 47.60 170.28 47Q170.88 46.40 170.92 45.52L170.92 45.52L170.92 26.44Q170.88 25.56 170.26 24.96Q169.64 24.36 168.80 24.36L168.80 24.36L168.36 24.36L168.36 23.96L181.28 23.96L181.28 24.36L180.88 24.36Q180.00 24.36 179.38 24.96Q178.76 25.56 178.76 26.48L178.76 26.48L178.76 45.52Q178.76 46.40 179.38 47Q180.00 47.60 180.88 47.60ZM197.00 48L192.88 48L192.44 48Q186.24 48 183.64 44.40L183.64 44.40Q182.52 42.88 181.14 40.10Q179.76 37.32 179.76 37.28L179.76 37.28L187.72 25.92Q188.16 25.32 187.90 24.82Q187.64 24.32 186.96 24.32L186.96 24.32L186.64 24.32L186.64 24L194.80 24L194.80 24.32L194.64 24.32Q192.56 24.32 191.16 25.80L191.16 25.80L185.80 32.52L193.36 44.88Q195.04 47.60 197.00 47.68L197.00 47.68L197.00 48Z M220.32 39.92L220.32 39.92Q220.32 44.32 217.16 46.52L217.16 46.52Q214.36 48.48 209.40 48.48L209.40 48.48Q206.44 48.48 204.46 47.82Q202.48 47.16 201.72 46.20L201.72 46.20Q201.36 45.36 201.36 44.44Q201.36 43.52 201.52 42.68L201.52 42.68Q201.96 40.56 202.92 39.36L202.92 39.36L203.16 39.36Q203.16 39.56 203.16 39.72L203.16 39.72Q203.16 42.40 205.08 44.52L205.08 44.52Q207.04 46.64 210.48 46.64L210.48 46.64Q212.52 46.64 213.56 45.72Q214.60 44.80 214.60 43.60Q214.60 42.40 213.66 41.48Q212.72 40.56 210.60 39.64L210.60 39.64L206.40 37.68Q203.84 36.60 202.64 34.52L202.64 34.52Q201.72 32.92 201.72 31L201.72 31Q201.72 30.36 201.80 29.72L201.80 29.72Q202.68 23.52 209.40 23.52L209.40 23.52Q211.64 23.52 215.44 23.88L215.44 23.88L218.12 23.88L217.16 29.72L216.92 29.72Q216.92 27.76 215.50 26.58Q214.08 25.40 211.96 25.40L211.96 25.40Q207.88 25.40 207.60 28.04L207.60 28.04Q207.48 29.32 208.56 30.08L208.56 30.08Q209.40 30.64 210.88 31.24L210.88 31.24L216.04 33.60Q218.16 34.52 219.24 36.16Q220.32 37.80 220.32 39.92Z"/></g>
</svg>
</g><g opacity="0.2" transform="rotate(0 382.9089 106.1561)">
<svg width="82.1821" height="48.5103" x="382.9089" y="106.1561" version="1.1" preserveAspectRatio="none" viewBox="28 57.5 144 85">
  <g transform="matrix(1 0 0 1 0 0)" ><g><path d="M28 65.5h18v77H28v-77z" data-color="1" style="fill:#FFFFFF;fill-opacity:1;"></path><path d="M50 57.5h18v85H50v-85z" data-color="1" style="fill:#FFFFFF;fill-opacity:1;"></path><path d="M72 78.5h18v64H72v-64z" data-color="1" style="fill:#FFFFFF;fill-opacity:1;"></path><path d="M94 57.5h18v85H94v-85z" data-color="1" style="fill:#FFFFFF;fill-opacity:1;"></path><path d="M172 132.3l-15.6 9-42.5-73.6 15.6-9 42.5 73.6z" data-color="1" style="fill:#FFFFFF;fill-opacity:1;"></path></g></g>
</svg>
</g></svg>